<?xml version="1.0" standalone="no"?>
<!DOCTYPE svg PUBLIC "-//W3C//DTD SVG 20010904//EN"
 "http://www.w3.org/TR/2001/REC-SVG-20010904/DTD/svg10.dtd">
<svg version="1.0" xmlns="http://www.w3.org/2000/svg"
 width="267.000000pt" height="129.000000pt" viewBox="0 0 267.000000 129.000000"
 preserveAspectRatio="xMidYMid meet">

<g transform="translate(0.000000,129.000000) scale(0.100000,-0.100000)"
fill="#000000" stroke="none">
<path d="M2090 1260 c-8 -5 -12 -12 -9 -15 4 -3 12 1 19 10 14 17 11 19 -10 5z"/>
<path d="M2023 1250 c-13 -5 -23 -12 -23 -16 0 -3 7 -3 16 0 11 4 18 -1 21
-14 7 -28 27 -20 31 13 4 29 -6 32 -45 17z"/>
<path d="M2063 1181 c-12 -21 -25 -54 -28 -72 -8 -42 -13 -49 -29 -43 -8 3
-17 0 -22 -7 -5 -9 -2 -10 9 -6 10 3 17 2 17 -3 0 -6 6 -9 12 -8 23 5 37 32
38 72 0 21 9 54 21 72 11 19 17 34 12 34 -4 0 -18 -18 -30 -39z"/>
<path d="M1960 1135 c-7 -9 -10 -18 -7 -21 3 -3 10 4 17 15 13 25 8 27 -10 6z"/>
<path d="M452 1119 c2 -7 14 -19 26 -27 19 -12 22 -12 17 -1 -7 19 -49 46 -43
28z"/>
<path d="M1114 965 c0 -77 2 -107 3 -67 2 40 2 103 0 140 -2 37 -3 4 -3 -73z"/>
<path d="M1941 1084 c0 -11 3 -14 6 -6 3 7 2 16 -1 19 -3 4 -6 -2 -5 -13z"/>
<path d="M1794 1058 c-3 -4 -4 -34 -2 -66 1 -31 -1 -63 -5 -69 -5 -8 -3 -13 3
-13 19 0 32 52 22 92 -10 40 2 54 13 17 6 -19 8 -20 23 -5 14 14 14 17 -1 34
-18 20 -44 25 -53 10z"/>
<path d="M1931 1044 c0 -11 3 -14 6 -6 3 7 2 16 -1 19 -3 4 -6 -2 -5 -13z"/>
<path d="M2040 1016 c0 -7 7 -19 15 -26 16 -13 20 -3 9 24 -8 20 -24 21 -24 2z"/>
<path d="M2090 1023 c1 -19 18 -33 34 -27 13 5 14 9 5 20 -12 15 -39 19 -39 7z"/>
<path d="M395 958 c-32 -11 -75 -38 -62 -38 5 0 22 7 39 16 17 9 52 20 77 24
41 7 42 8 11 8 -19 0 -48 -4 -65 -10z"/>
<path d="M686 940 c19 -19 184 -98 188 -91 9 13 -9 28 -49 41 -22 7 -61 23
-87 36 -51 26 -68 30 -52 14z"/>
<path d="M235 885 c-25 -12 -26 -14 -5 -9 28 7 60 23 45 23 -5 0 -23 -6 -40
-14z"/>
<path d="M2095 890 c-3 -5 -4 -10 -1 -10 2 0 11 -3 20 -6 11 -4 16 -1 16 10 0
18 -25 22 -35 6z"/>
<path d="M1905 839 c-4 -6 -4 -13 0 -17 11 -11 78 -12 94 -1 14 9 13 10 -2 5
-10 -3 -31 1 -47 9 -35 18 -37 18 -45 4z"/>
<path d="M1735 819 c-9 -14 -2 -20 14 -10 8 6 9 11 3 15 -6 3 -14 1 -17 -5z"/>
<path d="M921 804 c0 -11 3 -14 6 -6 3 7 2 16 -1 19 -3 4 -6 -2 -5 -13z"/>
<path d="M2180 790 c0 -14 9 -31 20 -38 25 -15 25 -11 0 30 -19 32 -20 32 -20
8z"/>
<path d="M2030 774 c-16 -10 -18 -13 -5 -8 11 4 30 6 42 6 12 -1 25 3 28 8 10
15 -37 11 -65 -6z"/>
<path d="M1790 770 c0 -5 7 -10 15 -10 8 0 15 5 15 10 0 6 -7 10 -15 10 -8 0
-15 -4 -15 -10z"/>
<path d="M1580 720 c-12 -8 -12 -10 5 -9 11 0 29 4 40 9 18 8 18 9 -5 9 -14 0
-32 -4 -40 -9z"/>
<path d="M1770 716 c0 -9 5 -16 10 -16 6 0 10 4 10 9 0 6 -4 13 -10 16 -5 3
-10 -1 -10 -9z"/>
<path d="M1112 372 c-2 -280 0 -323 13 -328 41 -16 57 56 36 161 l-8 40 -6
-35 c-4 -19 -8 -46 -10 -60 -3 -14 -5 49 -7 140 -6 368 -16 415 -18 82z"/>
<path d="M1875 677 c-16 -13 -15 -14 14 -9 17 2 34 8 37 13 8 14 -30 10 -51
-4z"/>
<path d="M2217 665 c-17 -12 -17 -16 -4 -42 l15 -28 7 27 c4 14 5 33 3 42 -2
12 -6 13 -21 1z"/>
<path d="M2020 639 c0 -5 5 -7 10 -4 6 3 10 8 10 11 0 2 -4 4 -10 4 -5 0 -10
-5 -10 -11z"/>
<path d="M1930 605 c-10 -12 -10 -15 4 -15 9 0 16 7 16 15 0 8 -2 15 -4 15 -2
0 -9 -7 -16 -15z"/>
<path d="M2483 604 c-3 -8 -1 -20 6 -27 8 -8 15 -6 25 8 11 15 11 22 3 27 -18
12 -27 9 -34 -8z"/>
<path d="M2010 589 c0 -11 4 -18 10 -14 5 3 7 12 3 20 -7 21 -13 19 -13 -6z"/>
<path d="M2583 603 c-7 -3 -13 -16 -13 -29 0 -16 -8 -27 -22 -33 -13 -5 -32
-25 -42 -45 -11 -20 -23 -36 -28 -36 -4 0 -8 -7 -8 -15 0 -17 -45 -21 -55 -5
-4 6 -11 7 -17 4 -7 -4 -6 -9 2 -14 9 -6 7 -10 -8 -14 -11 -4 -30 -22 -41 -41
-17 -29 -26 -35 -55 -35 -29 0 -38 5 -51 30 -12 22 -19 27 -28 20 -7 -6 -21
-17 -32 -25 -19 -14 -17 -14 15 -8 30 6 33 4 23 -9 -16 -18 -7 -28 24 -28 32
0 29 -19 -9 -51 -18 -16 -28 -28 -22 -29 6 0 17 7 24 15 7 8 18 15 26 15 7 0
15 8 19 18 7 23 78 82 99 82 24 0 119 40 140 58 10 9 27 36 38 59 28 62 36 60
36 -10 1 -73 -11 -118 -38 -142 -31 -28 -23 -39 10 -15 60 43 73 107 45 223
-15 66 -15 66 -32 60z"/>
<path d="M1653 570 c-33 -13 -28 -16 18 -12 31 3 45 0 60 -17 11 -12 31 -21
47 -20 l27 1 -29 8 c-16 5 -37 18 -48 29 -20 22 -40 25 -75 11z"/>
<path d="M20 552 c0 -28 51 -82 77 -82 16 1 16 2 -2 12 -28 16 -40 29 -58 63
-15 28 -16 29 -17 7z"/>
<path d="M770 552 c0 -37 54 -77 116 -86 38 -6 38 -6 -8 9 -46 15 -88 54 -88
81 0 8 -4 14 -10 14 -5 0 -10 -8 -10 -18z"/>
<path d="M1478 549 c-19 -11 -24 -54 -8 -64 6 -3 10 1 10 10 0 9 4 14 9 11 11
-7 23 36 13 46 -4 4 -15 2 -24 -3z"/>
<path d="M2380 541 c0 -5 -14 -14 -30 -21 -40 -17 -33 -23 8 -8 30 12 52 38
32 38 -6 0 -10 -4 -10 -9z"/>
<path d="M2191 506 c-10 -12 -8 -13 8 -9 12 3 21 9 21 14 0 14 -16 11 -29 -5z"/>
<path d="M945 480 c-16 -7 -17 -9 -3 -9 9 -1 20 4 23 9 7 11 7 11 -20 0z"/>
<path d="M133 463 c9 -2 23 -2 30 0 6 3 -1 5 -18 5 -16 0 -22 -2 -12 -5z"/>
<path d="M1683 362 c-6 -24 -23 -28 -40 -11 -7 7 -12 6 -16 -5 -8 -19 10 -24
60 -17 l41 6 -19 24 -20 24 -6 -21z"/>
<path d="M1780 319 c0 -13 39 -21 56 -11 14 8 9 10 -20 14 -20 2 -36 1 -36 -3z"/>
<path d="M1978 308 c9 -9 15 -9 24 0 9 9 7 12 -12 12 -19 0 -21 -3 -12 -12z"/>
<path d="M1452 290 c0 -14 2 -19 5 -12 2 6 2 18 0 25 -3 6 -5 1 -5 -13z"/>
<path d="M1518 238 c-8 -19 16 -45 27 -28 3 5 2 10 -4 10 -5 0 -11 8 -13 18
-3 16 -4 16 -10 0z"/>
<path d="M755 220 c-19 -8 -19 -9 3 -9 12 -1 22 4 22 9 0 6 -1 10 -2 9 -2 0
-12 -4 -23 -9z"/>
<path d="M1461 190 c0 -32 12 -105 24 -138 3 -7 9 -11 14 -8 4 3 0 40 -10 82
-23 97 -27 107 -28 64z"/>
<path d="M2090 200 c-11 -8 -7 -9 15 -4 37 8 45 14 19 14 -10 0 -26 -5 -34
-10z"/>
<path d="M795 150 c-16 -4 -59 -9 -95 -10 l-65 -3 90 -9 c104 -11 175 -4 175
18 0 15 -52 18 -105 4z"/>
<path d="M159 127 c5 -5 21 -7 37 -5 27 3 26 4 -8 9 -22 3 -34 1 -29 -4z"/>
<path d="M283 123 c9 -2 23 -2 30 0 6 3 -1 5 -18 5 -16 0 -22 -2 -12 -5z"/>
</g>
</svg>
